<svg width="31" height="30" viewBox="0 0 31 30" fill="none" xmlns="http://www.w3.org/2000/svg">
<path fill-rule="evenodd" clip-rule="evenodd" d="M10.8989 13.0941C10.6648 11.8812 10.5422 10.6286 10.5422 9.34737V0.55542H30.1948V29C25.4358 29 21.0718 27.3084 17.6715 24.4937C14.2791 26.7537 8.83942 28.902 2.2674 27.7071C4.07751 26.9313 11.0594 22.2767 10.8008 12.9676C10.8322 13.0107 10.8649 13.0529 10.8989 13.0941Z" fill="#3A506B"/>
<path d="M10.8989 13.0941L10.5883 13.3507L11.2945 13.0177L10.8989 13.0941ZM10.5422 0.55542V0.152494H10.1393V0.55542H10.5422ZM30.1948 0.55542H30.5977V0.152494H30.1948V0.55542ZM30.1948 29V29.4029H30.5977V29H30.1948ZM17.6715 24.4937L17.9284 24.1834L17.6975 23.9922L17.4481 24.1584L17.6715 24.4937ZM2.2674 27.7071L2.10868 27.3367L0.87828 27.864L2.19532 28.1035L2.2674 27.7071ZM10.8008 12.9676L11.1266 12.7306L10.3619 11.6791L10.398 12.9788L10.8008 12.9676ZM10.1393 9.34737C10.1393 10.6544 10.2643 11.9326 10.5033 13.1705L11.2945 13.0177C11.0652 11.8299 10.9451 10.6029 10.9451 9.34737H10.1393ZM10.1393 0.55542V9.34737H10.9451V0.55542H10.1393ZM30.1948 0.152494H10.5422V0.958345H30.1948V0.152494ZM30.5977 29V0.55542H29.7919V29H30.5977ZM17.4145 24.8041C20.8845 27.6764 25.3386 29.4029 30.1948 29.4029V28.5971C25.533 28.5971 21.2592 26.9405 17.9284 24.1834L17.4145 24.8041ZM2.19532 28.1035C8.89568 29.3218 14.44 27.1307 17.8949 24.8291L17.4481 24.1584C14.1181 26.3768 8.78316 28.4822 2.33947 27.3107L2.19532 28.1035ZM10.398 12.9788C10.5242 17.5222 8.88583 20.9224 6.99521 23.2857C5.09669 25.6588 2.95201 26.9753 2.10868 27.3367L2.42612 28.0774C3.39289 27.6631 5.64419 26.2644 7.62448 23.7891C9.61267 21.3038 11.3359 17.7222 11.2035 12.9564L10.398 12.9788ZM11.2095 12.8375C11.1807 12.8026 11.1531 12.7669 11.1266 12.7306L10.4749 13.2046C10.5112 13.2546 10.5491 13.3033 10.5883 13.3507L11.2095 12.8375Z" fill="#3A506B"/>
</svg>
