<svg width="31" height="30" viewBox="0 0 31 30" fill="none" xmlns="http://www.w3.org/2000/svg">
<path fill-rule="evenodd" clip-rule="evenodd" d="M10.7041 13.0941C10.47 11.8812 10.3474 10.6286 10.3474 9.34737V0.55542H30V29C25.241 29 20.877 27.3084 17.4766 24.4937C14.0843 26.7537 8.6446 28.902 2.07258 27.7071C3.88269 26.9313 10.8645 22.2767 10.606 12.9676C10.6373 13.0107 10.6701 13.0529 10.7041 13.0941Z" fill="#3A506B"/>
<path d="M10.7041 13.0941L10.3935 13.3507L11.0997 13.0177L10.7041 13.0941ZM10.3474 0.55542V0.152494H9.94444V0.55542H10.3474ZM30 0.55542H30.4029V0.152494H30V0.55542ZM30 29V29.4029H30.4029V29H30ZM17.4766 24.4937L17.7336 24.1834L17.5027 23.9922L17.2533 24.1584L17.4766 24.4937ZM2.07258 27.7071L1.91386 27.3367L0.683464 27.864L2.0005 28.1035L2.07258 27.7071ZM10.606 12.9676L10.9318 12.7306L10.1671 11.6791L10.2032 12.9788L10.606 12.9676ZM9.94444 9.34737C9.94444 10.6544 10.0695 11.9326 10.3085 13.1705L11.0997 13.0177C10.8704 11.8299 10.7503 10.6029 10.7503 9.34737H9.94444ZM9.94444 0.55542V9.34737H10.7503V0.55542H9.94444ZM30 0.152494H10.3474V0.958345H30V0.152494ZM30.4029 29V0.55542H29.5971V29H30.4029ZM17.2197 24.8041C20.6897 27.6764 25.1438 29.4029 30 29.4029V28.5971C25.3382 28.5971 21.0644 26.9405 17.7336 24.1834L17.2197 24.8041ZM2.0005 28.1035C8.70087 29.3218 14.2452 27.1307 17.7 24.8291L17.2533 24.1584C13.9233 26.3768 8.58834 28.4822 2.14466 27.3106L2.0005 28.1035ZM10.2032 12.9788C10.3294 17.5222 8.69101 20.9224 6.8004 23.2857C4.90187 25.6588 2.75719 26.9753 1.91386 27.3367L2.2313 28.0774C3.19808 27.6631 5.44937 26.2644 7.42966 23.7891C9.41786 21.3038 11.1411 17.7222 11.0087 12.9564L10.2032 12.9788ZM11.0147 12.8375C10.9859 12.8026 10.9582 12.7669 10.9318 12.7306L10.2801 13.2046C10.3164 13.2546 10.3542 13.3033 10.3935 13.3507L11.0147 12.8375Z" fill="#3A506B"/>
</svg>
